<svg width="216" height="46" viewBox="0 0 216 46" fill="none" xmlns="http://www.w3.org/2000/svg">
<path d="M39.6401 17.4236C39.2496 17.0331 39.0537 16.5555 39.0537 15.9891C39.0537 15.4228 39.2496 14.9465 39.6401 14.5561C40.0305 14.1642 40.5082 13.9697 41.0745 13.9697C41.6409 13.9697 42.0785 14.1657 42.4589 14.5561C42.8394 14.9465 43.0296 15.4256 43.0296 15.9891C43.0296 16.5526 42.8394 17.0317 42.4589 17.4236C42.0785 17.814 41.6166 18.0099 41.0745 18.0099C40.5325 18.0099 40.0319 17.814 39.6401 17.4236ZM42.5076 20.9103V38.7674H39.5428V20.9103H42.5076Z" fill="#0A607E"/>
<path d="M60.2817 22.5565C61.6289 23.8708 62.3025 25.7658 62.3025 28.2428V38.7674H59.3692V28.6661C59.3692 26.8856 58.923 25.5212 58.0335 24.5773C57.1425 23.6319 55.9268 23.16 54.3837 23.16C52.8405 23.16 51.5763 23.6491 50.6524 24.6259C49.7285 25.6041 49.268 27.0272 49.268 28.895V38.7688H46.3032V20.9118H49.268V23.4532C49.8543 22.5407 50.6524 21.8357 51.6635 21.3351C52.6732 20.836 53.7873 20.5857 55.0029 20.5857C57.1754 20.5857 58.9345 21.2436 60.2817 22.5579V22.5565Z" fill="#0A607E"/>
<path d="M79.726 22.5565C81.0732 23.8708 81.7468 25.7658 81.7468 28.2428V38.7674H78.8136V28.6661C78.8136 26.8856 78.3674 25.5212 77.4778 24.5773C76.5868 23.6319 75.3712 23.16 73.828 23.16C72.2849 23.16 71.0206 23.6491 70.0967 24.6259C69.1728 25.6041 68.7123 27.0272 68.7123 28.895V38.7688H65.7476V20.9118H68.7123V23.4532C69.2987 22.5407 70.0967 21.8357 71.1078 21.3351C72.1175 20.836 73.2316 20.5857 74.4473 20.5857C76.6197 20.5857 78.3788 21.2436 79.726 22.5579V22.5565Z" fill="#0A607E"/>
<path d="M89.5971 37.9192C88.2399 37.1584 87.1745 36.0786 86.4036 34.677C85.6327 33.2755 85.2466 31.6522 85.2466 29.8059C85.2466 27.9596 85.6427 26.3678 86.4365 24.9662C87.2288 23.5646 88.31 22.4892 89.6787 21.7412C91.0473 20.9918 92.579 20.6171 94.2738 20.6171C95.9685 20.6171 97.5003 20.9918 98.8689 21.7412C100.238 22.4906 101.317 23.5603 102.111 24.9505C102.903 26.3406 103.301 27.9596 103.301 29.8059C103.301 31.6522 102.893 33.2755 102.08 34.677C101.264 36.0786 100.162 37.1584 98.7717 37.9192C97.3816 38.6801 95.8384 39.0605 94.1451 39.0605C92.4518 39.0605 90.9572 38.6801 89.6 37.9192H89.5971ZM97.1413 35.7039C98.0752 35.2048 98.8303 34.4554 99.4052 33.4557C99.9802 32.4574 100.269 31.2404 100.269 29.8059C100.269 28.3714 99.9859 27.1558 99.4224 26.1561C98.8575 25.1579 98.1195 24.4127 97.2071 23.9236C96.2946 23.4345 95.3064 23.1899 94.2423 23.1899C93.1783 23.1899 92.1614 23.4345 91.2604 23.9236C90.3594 24.4127 89.6358 25.1564 89.0937 26.1561C88.5503 27.1558 88.2785 28.3714 88.2785 29.8059C88.2785 31.2404 88.5446 32.4889 89.0766 33.4886C89.6086 34.4883 90.3194 35.232 91.2104 35.7211C92.1014 36.2102 93.0782 36.4547 94.1437 36.4547C95.2091 36.4547 96.2074 36.2059 97.1413 35.7053V35.7039Z" fill="#0A607E"/>
<path d="M109.85 38.3598C108.763 37.8936 107.905 37.2414 107.276 36.4048C106.645 35.5681 106.297 34.6071 106.233 33.5216H109.296C109.384 34.4126 109.801 35.1405 110.551 35.704C111.3 36.2689 112.283 36.5506 113.5 36.5506C114.629 36.5506 115.52 36.3018 116.171 35.8012C116.823 35.3021 117.149 34.6714 117.149 33.9106C117.149 33.1497 116.802 32.5476 116.107 32.1672C115.412 31.7868 114.336 31.4121 112.88 31.0431C111.555 30.6955 110.473 30.3423 109.638 29.9848C108.801 29.6258 108.085 29.0938 107.487 28.3873C106.889 27.6822 106.59 26.7526 106.59 25.6013C106.59 24.6888 106.862 23.8536 107.406 23.0928C107.949 22.3319 108.72 21.7298 109.72 21.2836C110.718 20.8388 111.859 20.6157 113.141 20.6157C115.117 20.6157 116.713 21.1163 117.93 22.1145C119.147 23.1142 119.798 24.4829 119.885 26.2205H116.921C116.855 25.2866 116.48 24.5372 115.796 23.9723C115.113 23.4074 114.195 23.1257 113.043 23.1257C111.979 23.1257 111.131 23.3545 110.502 23.8107C109.871 24.2669 109.557 24.8647 109.557 25.6027C109.557 26.1891 109.747 26.6725 110.127 27.0529C110.508 27.4333 110.985 27.7365 111.562 27.9653C112.137 28.1927 112.936 28.4488 113.957 28.7305C115.239 29.078 116.281 29.4198 117.085 29.7573C117.889 30.0949 118.578 30.5997 119.154 31.2719C119.729 31.9455 120.028 32.8251 120.051 33.912C120.051 34.8902 119.779 35.7698 119.236 36.5521C118.693 37.3344 117.927 37.9479 116.939 38.3927C115.951 38.8375 114.815 39.0606 113.534 39.0606C112.165 39.0606 110.938 38.826 109.851 38.3598H109.85Z" fill="#0A607E"/>
<path d="M124.219 24.9677C124.957 23.589 125.984 22.5192 127.298 21.7584C128.612 20.999 130.117 20.6185 131.811 20.6185C134.005 20.6185 135.815 21.1506 137.238 22.216C138.661 23.2801 139.6 24.7574 140.056 26.6481H136.863C136.558 25.5626 135.966 24.7045 135.087 24.0738C134.207 23.4445 133.116 23.1285 131.811 23.1285C130.117 23.1285 128.748 23.7106 127.705 24.8718C126.663 26.0346 126.141 27.6793 126.141 29.8088C126.141 31.9383 126.663 33.6216 127.705 34.7943C128.748 35.9671 130.117 36.5535 131.811 36.5535C133.114 36.5535 134.201 36.2503 135.069 35.641C135.938 35.0332 136.535 34.1636 136.861 33.0338H140.055C139.577 34.8587 138.621 36.3203 137.187 37.4158C135.753 38.5128 133.961 39.062 131.811 39.062C130.117 39.062 128.612 38.6815 127.298 37.9207C125.984 37.1599 124.957 36.0858 124.219 34.6942C123.479 33.3041 123.11 31.6752 123.11 29.8059C123.11 27.9367 123.479 26.3463 124.219 24.9662V24.9677Z" fill="#0A607E"/>
<path d="M149.197 21.4323C150.164 20.8674 151.342 20.5857 152.732 20.5857V23.6491H151.95C148.626 23.6491 146.964 25.4525 146.964 29.058V38.7688H144V20.9118H146.964V23.8122C147.486 22.791 148.23 21.9987 149.197 21.4338V21.4323Z" fill="#0A607E"/>
<path d="M156.435 17.4236C156.044 17.0331 155.848 16.5555 155.848 15.9891C155.848 15.4228 156.044 14.9465 156.435 14.5561C156.825 14.1642 157.303 13.9697 157.869 13.9697C158.435 13.9697 158.873 14.1657 159.253 14.5561C159.634 14.9465 159.824 15.4256 159.824 15.9891C159.824 16.5526 159.634 17.0317 159.253 17.4236C158.873 17.814 158.411 18.0099 157.869 18.0099C157.327 18.0099 156.826 17.814 156.435 17.4236ZM159.302 20.9103V38.7674H156.337V20.9103H159.302Z" fill="#0A607E"/>
<path d="M169.757 21.6439C170.918 20.9603 172.271 20.6171 173.814 20.6171C175.357 20.6171 176.839 20.9975 178.132 21.7569C179.425 22.5178 180.44 23.5875 181.178 24.9662C181.916 26.3463 182.286 27.9481 182.286 29.773C182.286 31.5979 181.917 33.184 181.178 34.5955C180.44 36.0085 179.423 37.104 178.132 37.8863C176.839 38.6686 175.4 39.0591 173.814 39.0591C172.228 39.0591 170.952 38.7173 169.789 38.0322C168.627 37.3486 167.742 36.4962 167.134 35.4736V45.9367H164.169V20.9088H167.134V24.1996C167.72 23.1785 168.594 22.3261 169.757 21.6411V21.6439ZM178.441 26.2548C177.897 25.2551 177.163 24.4957 176.241 23.9737C175.317 23.4531 174.302 23.1914 173.195 23.1914C172.088 23.1914 171.104 23.4574 170.18 23.9894C169.256 24.5214 168.518 25.2923 167.965 26.3034C167.411 27.3131 167.134 28.4816 167.134 29.8059C167.134 31.1302 167.411 32.3316 167.965 33.3413C168.518 34.351 169.257 35.1232 170.18 35.6553C171.102 36.1873 172.108 36.4533 173.195 36.4533C174.282 36.4533 175.319 36.1873 176.241 35.6553C177.163 35.1232 177.897 34.3524 178.441 33.3413C178.984 32.3316 179.256 31.1417 179.256 29.773C179.256 28.4043 178.984 27.253 178.441 26.2534V26.2548Z" fill="#0A607E"/>
<path d="M189.813 23.3545V33.8791C189.813 34.7487 189.998 35.3622 190.367 35.7197C190.736 36.0787 191.377 36.2575 192.289 36.2575H194.473V38.766H191.801C190.151 38.766 188.912 38.3856 188.087 37.6247C187.262 36.8639 186.849 35.6153 186.849 33.8777V23.3531H184.535V20.9089H186.849V16.4125H189.813V20.9089H194.473V23.3531H189.813V23.3545Z" fill="#0A607E"/>
<path d="M198.057 24.9677C198.795 23.589 199.81 22.5192 201.103 21.7584C202.396 20.999 203.834 20.6185 205.421 20.6185C207.007 20.6185 208.342 20.956 209.494 21.6282C210.645 22.3018 211.503 23.1485 212.068 24.1696V20.9117H215.066V38.7688H212.068V35.4451C211.482 36.4877 210.606 37.3515 209.445 38.0351C208.282 38.7187 206.931 39.062 205.388 39.062C203.844 39.062 202.369 38.6715 201.086 37.8892C199.804 37.1069 198.793 36.01 198.055 34.5984C197.316 33.1868 196.947 31.5793 196.947 29.7759C196.947 27.9724 197.316 26.3492 198.055 24.9691L198.057 24.9677ZM211.254 26.2877C210.711 25.2894 209.978 24.5229 209.055 23.9909C208.131 23.4588 207.115 23.1928 206.008 23.1928C204.901 23.1928 203.89 23.4531 202.978 23.9751C202.065 24.4957 201.337 25.2566 200.794 26.2562C200.25 27.2559 199.979 28.4287 199.979 29.7759C199.979 31.1231 200.25 32.3345 200.794 33.3442C201.337 34.3539 202.065 35.1261 202.978 35.6582C203.89 36.1902 204.9 36.4562 206.008 36.4562C207.117 36.4562 208.132 36.1902 209.055 35.6582C209.977 35.1261 210.711 34.3553 211.254 33.3442C211.798 32.3345 212.069 31.156 212.069 29.8088C212.069 28.4616 211.798 27.2888 211.254 26.2891V26.2877Z" fill="#0A607E"/>
<path d="M20.44 33.2985C16.0136 30.7213 10.9794 29.1539 5.61341 28.7134C5.57193 28.7105 5.54333 28.7534 5.56049 28.7906L6.50154 30.7213C6.62453 30.9716 6.85479 31.1704 7.13081 31.209C11.6373 31.8354 15.9306 33.3915 19.6634 35.6468C19.6891 35.6626 19.7234 35.6526 19.7377 35.6254L20.613 33.892C20.7203 33.6789 20.6445 33.4172 20.4385 33.2985H20.44Z" fill="#2B8AAF"/>
<path d="M20.4786 33.3228C20.1854 33.144 19.9995 33.0468 19.9995 33.0468C19.9995 33.0468 20.297 33.2699 20.3156 33.4343C20.3399 33.6417 20.0639 33.7175 20.0639 33.7175L18.8668 34.0221C16.1581 34.6486 13.3077 34.9889 10.4317 34.9889C9.96544 34.9889 9.48634 34.9803 9.01724 34.9632C8.84133 34.956 8.77125 35.1234 8.84991 35.2807L9.69943 37.0455C9.8024 37.2515 9.98833 37.3787 10.2186 37.3802C10.2901 37.3802 10.3602 37.3802 10.4317 37.3802C13.4007 37.3802 16.2982 37.0498 19.0813 36.4248C19.2658 36.3833 19.4217 36.2603 19.5061 36.0916L20.3999 34.321L20.5158 34.0908L20.6517 33.8205C20.6517 33.8205 20.7961 33.5173 20.4772 33.3228H20.4786Z" fill="#0A607E"/>
<path d="M15.6617 43.7372L11.2868 34.9803C10.3171 34.9989 9.51767 34.9689 9.05858 34.9446C8.8698 34.9346 8.74109 35.1319 8.82547 35.3021L14.0399 45.6909C14.1729 45.9554 14.549 45.9554 14.682 45.6909L15.6617 43.7387V43.7372Z" fill="#0A607E"/>
<path d="M16.8518 40.455C15.1513 40.711 13.3993 40.8697 11.6445 40.9198L14.1216 45.8524C14.2203 46.0484 14.5006 46.0484 14.5993 45.8524L17.1221 40.8254C17.2165 40.6381 17.0606 40.4235 16.8518 40.455Z" fill="#0A607E"/>
<path d="M3.50963 24.7189L5.49756 28.6804L7.05072 28.8249C7.38109 28.8492 7.77582 28.8764 8.24062 28.9036C8.96286 28.9536 9.68509 28.9794 10.4202 28.9794C14.1644 28.9794 17.8185 28.2929 21.1465 27.0772C21.3381 27.0072 21.494 26.8656 21.5855 26.6839L24.3915 21.0748C25.1595 19.5403 25.743 17.917 26.0905 16.2366C26.2264 15.5787 26.3222 14.9265 26.3222 14.3988C26.3222 5.66763 16.9232 -1.04844 7.8459 4.34615C6.41716 5.19567 5.29019 6.45279 4.37488 7.80859C1.81202 11.6043 1.9436 16.2294 3.59258 19.6175L3.56684 19.5689L3.66266 19.7619C3.68268 19.8005 3.70127 19.8406 3.7213 19.8792L6.36281 25.1208C5.04134 24.9463 4.40635 24.8619 3.93725 24.7933C3.65837 24.7518 3.41667 24.5744 3.29511 24.3199L3.03338 23.775L1.49166 20.703L1.47736 20.6744C0.554905 18.778 0 16.6499 0 14.3988C0 4.04439 11.1753 -3.90877 21.6928 2.04216C23.6292 3.13766 25.5142 4.95541 26.6884 7.05632C29.224 11.5942 29.1811 16.2695 27.5579 20.0537L27.5279 20.1209L24.842 25.4454L23.2588 28.5989C23.1716 28.7734 23.0243 28.9107 22.8441 28.9822C19.0026 30.5239 14.8065 31.372 10.4202 31.372C9.3204 31.372 8.23347 31.3191 7.15942 31.2147C6.88625 31.1875 6.64599 31.0188 6.52442 30.7728L5.49756 28.6833L3.50963 24.7189Z" fill="#0A607E"/>
</svg>
